<svg width="130" height="130" viewBox="0 0 130 130" fill="none" xmlns="http://www.w3.org/2000/svg">
    <circle cx="65" cy="65" r="63.5" fill="white" stroke="#DEDEDE" stroke-width="3"/>
    <path d="M69.2222 35.7222C69.2222 33.6665 67.5557 32 65.5 32C63.4443 32 61.7778 33.6665 61.7778 35.7222V61.7778H35.7222C33.6665 61.7778 32 63.4443 32 65.5C32 67.5557 33.6665 69.2222 35.7222 69.2222H61.7778V95.2778C61.7778 97.3335 63.4443 99 65.5 99C67.5557 99 69.2222 97.3335 69.2222 95.2778V69.2222H95.2778C97.3335 69.2222 99 67.5557 99 65.5C99 63.4443 97.3335 61.7778 95.2778 61.7778H69.2222V35.7222Z" fill="#DEDEDE"/>
</svg>
