<svg width="150" height="150" viewBox="0 0 150 150" fill="none" xmlns="http://www.w3.org/2000/svg">
    <path d="M75.3125 104.688C76.3542 104.688 77.2135 104.349 77.8906 103.672C78.5677 102.995 78.9062 102.135 78.9062 101.094V79.0625H101.25C102.188 79.0625 102.995 78.724 103.672 78.0469C104.349 77.3698 104.687 76.5104 104.688 75.4687C104.688 74.4271 104.349 73.5677 103.672 72.8906C102.995 72.2135 102.135 71.875 101.094 71.875H78.9062V48.75C78.9062 47.8125 78.5677 47.0052 77.8906 46.3281C77.2135 45.651 76.3542 45.3125 75.3125 45.3125C74.2708 45.3125 73.4375 45.651 72.8125 46.3281C72.1875 47.0052 71.875 47.8646 71.875 48.9062V71.875H48.75C47.8125 71.875 47.0052 72.2135 46.3281 72.8906C45.651 73.5677 45.3125 74.4271 45.3125 75.4687C45.3125 76.5104 45.651 77.3698 46.3281 78.0469C47.0052 78.724 47.8646 79.0625 48.9062 79.0625H71.875V101.25C71.875 102.188 72.1875 102.995 72.8125 103.672C73.4375 104.349 74.2708 104.687 75.3125 104.688ZM75 134.375C66.6667 134.375 58.8802 132.865 51.6406 129.844C44.401 126.823 38.099 122.63 32.7344 117.266C27.3698 111.901 23.1771 105.599 20.1562 98.3594C17.1354 91.1198 15.625 83.3333 15.625 75C15.625 66.6667 17.1354 58.9062 20.1562 51.7187C23.1771 44.5312 27.3698 38.2552 32.7344 32.8906C38.099 27.526 44.401 23.3073 51.6406 20.2344C58.8802 17.1615 66.6667 15.625 75 15.625C83.3333 15.625 91.0938 17.1615 98.2813 20.2344C105.469 23.3073 111.745 27.526 117.109 32.8906C122.474 38.2552 126.693 44.5312 129.766 51.7187C132.839 58.9062 134.375 66.6667 134.375 75C134.375 83.3333 132.839 91.1198 129.766 98.3594C126.693 105.599 122.474 111.901 117.109 117.266C111.745 122.63 105.469 126.823 98.2813 129.844C91.0938 132.865 83.3333 134.375 75 134.375Z" fill="black"/>
</svg>
