<svg width="90" height="90" viewBox="0 0 90 90" fill="none" xmlns="http://www.w3.org/2000/svg">
<path d="M26.0625 76.875C24.625 76.875 23.375 76.3438 22.3125 75.2813C21.25 74.2188 20.7188 72.9375 20.7188 71.4375V20.4375H19.0312C18.4062 20.4375 17.8906 20.2344 17.4844 19.8281C17.0781 19.4219 16.875 18.9062 16.875 18.2812C16.875 17.6562 17.0781 17.1562 17.4844 16.7812C17.8906 16.4062 18.4062 16.2187 19.0312 16.2187H32.9062C32.9062 15.4062 33.1719 14.7656 33.7031 14.2969C34.2344 13.8281 34.875 13.5938 35.625 13.5938H54.375C55.125 13.5938 55.7656 13.8438 56.2969 14.3438C56.8281 14.8438 57.0938 15.4687 57.0938 16.2187H70.9687C71.5937 16.2187 72.1094 16.4219 72.5156 16.8281C72.9219 17.2344 73.125 17.75 73.125 18.375C73.125 18.9375 72.9219 19.4219 72.5156 19.8281C72.1094 20.2344 71.5937 20.4375 70.9687 20.4375H69.2812V71.4375C69.2812 72.9375 68.75 74.2188 67.6875 75.2813C66.625 76.3438 65.375 76.875 63.9375 76.875H26.0625ZM24.9375 20.4375V71.4375C24.9375 71.8125 25.0469 72.1094 25.2656 72.3281C25.4844 72.5469 25.75 72.6562 26.0625 72.6562H63.9375C64.25 72.6562 64.5156 72.5469 64.7344 72.3281C64.9531 72.1094 65.0625 71.8125 65.0625 71.4375V20.4375H24.9375ZM35.7187 62.5312C35.7187 63.1562 35.9219 63.6719 36.3281 64.0781C36.7344 64.4844 37.25 64.6875 37.875 64.6875C38.5 64.6875 39.0156 64.4844 39.4219 64.0781C39.8281 63.6719 40.0312 63.1562 40.0312 62.5312V30.375C40.0312 29.8125 39.8125 29.3281 39.375 28.9219C38.9375 28.5156 38.4375 28.3125 37.875 28.3125C37.25 28.3125 36.7344 28.5156 36.3281 28.9219C35.9219 29.3281 35.7187 29.8125 35.7187 30.375V62.5312ZM49.9688 62.5312C49.9688 63.1562 50.1875 63.6719 50.625 64.0781C51.0625 64.4844 51.5625 64.6875 52.125 64.6875C52.75 64.6875 53.2656 64.4844 53.6719 64.0781C54.0781 63.6719 54.2812 63.1562 54.2812 62.5312V30.375C54.2812 29.8125 54.0781 29.3281 53.6719 28.9219C53.2656 28.5156 52.75 28.3125 52.125 28.3125C51.5 28.3125 50.9844 28.5156 50.5781 28.9219C50.1719 29.3281 49.9688 29.8125 49.9688 30.375V62.5312ZM24.9375 20.4375V71.4375C24.9375 71.8125 25.0469 72.1094 25.2656 72.3281C25.4844 72.5469 25.75 72.6562 26.0625 72.6562H24.9375V20.4375Z" fill="black"/>
</svg>
