<svg width="55" height="27" viewBox="0 0 55 27" fill="none" xmlns="http://www.w3.org/2000/svg">
<path d="M24.5819 26.7732H13.1096C9.49962 26.7732 6.42246 25.5012 3.87809 22.9571C1.33371 20.4131 0.0615234 17.3363 0.0615234 13.7268C0.0615234 10.1173 1.33371 7.03998 3.87809 4.49489C6.42246 1.94979 9.49962 0.677246 13.1096 0.677246H24.5819V3.93915H13.1096C10.3881 3.93915 8.07679 4.88816 6.1755 6.78619C4.27417 8.68422 3.3235 10.9916 3.3235 13.7083C3.3235 16.425 4.27417 18.738 6.1755 20.6473C8.07679 22.5566 10.3881 23.5113 13.1096 23.5113H24.5819V26.7732ZM16.9798 15.3562V12.0942H38.017V15.3562H16.9798ZM30.3872 26.7732V23.5113H41.8596C44.581 23.5113 46.8924 22.5623 48.7936 20.6642C50.695 18.7662 51.6456 16.4588 51.6456 13.7421C51.6456 11.0254 50.695 8.71244 48.7936 6.80315C46.8924 4.89382 44.581 3.93915 41.8596 3.93915H30.3872V0.677246H41.8596C45.4695 0.677246 48.5467 1.94927 51.0911 4.4933C53.6354 7.03734 54.9075 10.1141 54.9075 13.7236C54.9075 17.3332 53.6354 20.4105 51.0911 22.9555C48.5467 25.5006 45.4695 26.7732 41.8596 26.7732H30.3872Z" fill="white"/>
</svg>
