<svg width="150" height="150" viewBox="0 0 150 150" fill="none" xmlns="http://www.w3.org/2000/svg">
    <path d="M36.25 110.469C42.5 106.406 48.6979 103.307 54.8437 101.172C60.9896 99.0365 67.7083 97.9688 75 97.9688C82.2917 97.9688 89.0365 99.0365 95.2344 101.172C101.432 103.307 107.656 106.406 113.906 110.469C118.385 105.156 121.745 99.5833 123.984 93.75C126.224 87.9167 127.344 81.6667 127.344 75C127.344 60.2083 122.318 47.7865 112.266 37.7344C102.214 27.6823 89.7917 22.6562 75 22.6562C60.2083 22.6562 47.7865 27.6823 37.7344 37.7344C27.6823 47.7865 22.6562 60.2083 22.6562 75C22.6562 81.6667 23.776 87.9167 26.0156 93.75C28.2552 99.5833 31.6667 105.156 36.25 110.469ZM75 78.5937C69.375 78.5937 64.6354 76.6667 60.7813 72.8125C56.9271 68.9583 55 64.2187 55 58.5938C55 52.9688 56.9271 48.2292 60.7813 44.375C64.6354 40.5208 69.375 38.5938 75 38.5938C80.625 38.5938 85.3646 40.5208 89.2187 44.375C93.0729 48.2292 95 52.9688 95 58.5938C95 64.2187 93.0729 68.9583 89.2187 72.8125C85.3646 76.6667 80.625 78.5937 75 78.5937ZM75 134.375C66.7708 134.375 59.0365 132.812 51.7969 129.688C44.5573 126.562 38.2552 122.318 32.8906 116.953C27.526 111.589 23.3073 105.312 20.2344 98.125C17.1615 90.9375 15.625 83.1771 15.625 74.8438C15.625 66.7188 17.1875 59.0365 20.3125 51.7969C23.4375 44.5573 27.6823 38.2813 33.0469 32.9688C38.4115 27.6563 44.6875 23.4375 51.875 20.3125C59.0625 17.1875 66.8229 15.625 75.1562 15.625C83.2812 15.625 90.9635 17.1875 98.2031 20.3125C105.443 23.4375 111.719 27.6563 117.031 32.9688C122.344 38.2813 126.562 44.5573 129.688 51.7969C132.812 59.0365 134.375 66.7708 134.375 75C134.375 83.2292 132.812 90.9375 129.688 98.125C126.562 105.312 122.344 111.589 117.031 116.953C111.719 122.318 105.443 126.562 98.2031 129.688C90.9635 132.812 83.2292 134.375 75 134.375Z" fill="black"/>
</svg>
