<svg width="120" height="120" viewBox="0 0 120 120" fill="none" xmlns="http://www.w3.org/2000/svg">
    <path d="M21.25 95.4687C27.5 91.1979 33.724 87.8646 39.9219 85.4688C46.1198 83.0729 52.8125 81.875 60 81.875C67.1875 81.875 73.9063 83.0729 80.1563 85.4688C86.4063 87.8646 92.6563 91.1979 98.9063 95.4687C103.385 90.1562 106.745 84.5833 108.984 78.75C111.224 72.9167 112.344 66.6667 112.344 60C112.344 45.2083 107.318 32.7865 97.2656 22.7344C87.2135 12.6823 74.7917 7.65625 60 7.65625C45.2083 7.65625 32.7865 12.6823 22.7344 22.7344C12.6823 32.7865 7.65625 45.2083 7.65625 60C7.65625 66.6667 8.77604 72.9167 11.0156 78.75C13.2552 84.5833 16.6667 90.1562 21.25 95.4687ZM60 63.5937C54.375 63.5937 49.6354 61.6667 45.7813 57.8125C41.9271 53.9583 40 49.2187 40 43.5938C40 37.9688 41.9271 33.2292 45.7813 29.375C49.6354 25.5208 54.375 23.5938 60 23.5938C65.625 23.5938 70.3646 25.5208 74.2187 29.375C78.0729 33.2292 80 37.9688 80 43.5938C80 49.2187 78.0729 53.9583 74.2187 57.8125C70.3646 61.6667 65.625 63.5937 60 63.5937ZM60 119.375C51.7708 119.375 44.0625 117.812 36.875 114.688C29.6875 111.562 23.4115 107.318 18.0469 101.953C12.6823 96.5885 8.4375 90.3125 5.3125 83.125C2.1875 75.9375 0.625 68.2292 0.625 60C0.625 51.7708 2.1875 44.0625 5.3125 36.875C8.4375 29.6875 12.6823 23.4115 18.0469 18.0469C23.4115 12.6823 29.6875 8.4375 36.875 5.3125C44.0625 2.1875 51.7708 0.625 60 0.625C68.2292 0.625 75.9375 2.1875 83.125 5.3125C90.3125 8.4375 96.5885 12.6823 101.953 18.0469C107.318 23.4115 111.562 29.6875 114.688 36.875C117.812 44.0625 119.375 51.7708 119.375 60C119.375 68.2292 117.812 75.9375 114.688 83.125C111.562 90.3125 107.318 96.5885 101.953 101.953C96.5885 107.318 90.3125 111.562 83.125 114.688C75.9375 117.812 68.2292 119.375 60 119.375ZM60 112.344C65.8333 112.344 71.5625 111.406 77.1875 109.531C82.8125 107.656 88.125 104.687 93.125 100.625C88.125 96.875 82.8385 94.0104 77.2656 92.0312C71.6927 90.0521 65.9375 89.0625 60 89.0625C54.0625 89.0625 48.2813 90.0521 42.6563 92.0312C37.0313 94.0104 31.7708 96.875 26.875 100.625C31.875 104.687 37.1875 107.656 42.8125 109.531C48.4375 111.406 54.1667 112.344 60 112.344ZM60 56.4063C63.75 56.4063 66.8229 55.2083 69.2188 52.8125C71.6146 50.4167 72.8125 47.3438 72.8125 43.5938C72.8125 39.8437 71.6146 36.7708 69.2188 34.375C66.8229 31.9792 63.75 30.7812 60 30.7812C56.25 30.7812 53.1771 31.9792 50.7812 34.375C48.3854 36.7708 47.1875 39.8437 47.1875 43.5938C47.1875 47.3438 48.3854 50.4167 50.7812 52.8125C53.1771 55.2083 56.25 56.4063 60 56.4063Z" fill="#CACACA"/>
</svg>
