<svg width="150" height="150" viewBox="0 0 150 150" fill="none" xmlns="http://www.w3.org/2000/svg">
    <path d="M35.1562 128.125C33.2812 128.125 31.6406 127.422 30.2344 126.016C28.8281 124.609 28.125 122.969 28.125 121.094V61.4062C28.125 60.2604 28.3594 59.1927 28.8281 58.2031C29.2969 57.2135 30 56.4063 30.9375 55.7813L70.7812 25.7812C71.4062 25.2604 72.0833 24.8958 72.8125 24.6875C73.5417 24.4792 74.2708 24.375 75 24.375C75.8333 24.375 76.5885 24.4792 77.2656 24.6875C77.9427 24.8958 78.5938 25.2604 79.2188 25.7812L119.062 55.7813C120 56.4063 120.703 57.2135 121.172 58.2031C121.641 59.1927 121.875 60.2604 121.875 61.4062V121.094C121.875 122.969 121.172 124.609 119.766 126.016C118.359 127.422 116.719 128.125 114.844 128.125H86.875V86.25H63.125V128.125H35.1562Z" fill="black"/>
</svg>
