<svg width="271" height="354" viewBox="0 0 271 354" fill="none" xmlns="http://www.w3.org/2000/svg">
    <rect width="271" height="354" rx="37" fill="#E8E8E8"/>
    <path d="M139.222 146.722C139.222 144.666 137.556 143 135.5 143C133.444 143 131.778 144.666 131.778 146.722V172.778H105.722C103.666 172.778 102 174.444 102 176.5C102 178.556 103.666 180.222 105.722 180.222H131.778V206.278C131.778 208.334 133.444 210 135.5 210C137.556 210 139.222 208.334 139.222 206.278V180.222H165.278C167.334 180.222 169 178.556 169 176.5C169 174.444 167.334 172.778 165.278 172.778H139.222V146.722Z" fill="white"/>
</svg>
