<svg xmlns="http://www.w3.org/2000/svg" viewBox="0 0 94.04 134.42"><g id="Layer_2" data-name="Layer 2"><g id="Layer_1-2" data-name="Layer 1"><path d="M52.67,113.61H15.13A15.15,15.15,0,0,1,0,98.48V15.13A15.15,15.15,0,0,1,15.13,0H52.67A15.15,15.15,0,0,1,67.8,15.13V98.48A15.15,15.15,0,0,1,52.67,113.61ZM15.13,4A11.14,11.14,0,0,0,4,15.13V98.48a11.14,11.14,0,0,0,11.13,11.13H52.67A11.14,11.14,0,0,0,63.8,98.48V15.13A11.14,11.14,0,0,0,52.67,4Z"/><path d="M65.88,124H28.34a15.14,15.14,0,0,1-15.13-15.13V25.5A15.14,15.14,0,0,1,28.34,10.37H65.88A15.14,15.14,0,0,1,81,25.5v83.35A15.15,15.15,0,0,1,65.88,124ZM28.34,14.37A11.14,11.14,0,0,0,17.21,25.5v83.35A11.15,11.15,0,0,0,28.34,120H65.88A11.15,11.15,0,0,0,77,108.85V25.5A11.15,11.15,0,0,0,65.88,14.37Z"/><path d="M78.91,134.42H41.37a15.14,15.14,0,0,1-15.13-15.13V35.94A15.14,15.14,0,0,1,41.37,20.81H78.91A15.15,15.15,0,0,1,94,35.94v83.35A15.15,15.15,0,0,1,78.91,134.42ZM41.37,24.81A11.14,11.14,0,0,0,30.24,35.94v83.35a11.14,11.14,0,0,0,11.13,11.13H78.91A11.14,11.14,0,0,0,90,119.29V35.94A11.14,11.14,0,0,0,78.91,24.81Z"/></g></g></svg>