<svg width="150" height="150" viewBox="0 0 150 150" fill="none" xmlns="http://www.w3.org/2000/svg">
<path d="M30.1562 117.969C29.1146 117.969 28.2552 117.63 27.5781 116.953C26.901 116.276 26.5625 115.417 26.5625 114.375C26.5625 113.333 26.901 112.474 27.5781 111.797C28.2552 111.12 29.1146 110.781 30.1562 110.781H39.5312V62.5C39.5312 54.2708 42.1094 46.7708 47.2656 40C52.4219 33.2292 59.2188 29.0625 67.6562 27.5V22.9688C67.6562 20.8854 68.3594 19.1927 69.7656 17.8906C71.1719 16.5885 72.9167 15.9375 75 15.9375C77.0833 15.9375 78.8281 16.5885 80.2344 17.8906C81.6406 19.1927 82.3438 20.8854 82.3438 22.9688V27.5C90.7812 29.0625 97.6042 33.2292 102.813 40C108.021 46.7708 110.625 54.2708 110.625 62.5V110.781H119.844C120.885 110.781 121.745 111.12 122.422 111.797C123.099 112.474 123.438 113.333 123.438 114.375C123.438 115.417 123.099 116.276 122.422 116.953C121.745 117.63 120.885 117.969 119.844 117.969H30.1562ZM75 136.25C71.9792 136.25 69.349 135.156 67.1094 132.969C64.8698 130.781 63.75 128.125 63.75 125H86.25C86.25 128.125 85.1562 130.781 82.9687 132.969C80.7812 135.156 78.125 136.25 75 136.25Z" fill="black"/>
</svg>
