<svg width="388" height="507" viewBox="0 0 388 507" fill="none" xmlns="http://www.w3.org/2000/svg">
    <rect width="388" height="507" fill="#E8E8E8"/>
    <path d="M197.222 223.722C197.222 221.666 195.556 220 193.5 220C191.444 220 189.778 221.666 189.778 223.722V249.778H163.722C161.666 249.778 160 251.444 160 253.5C160 255.556 161.666 257.222 163.722 257.222H189.778V283.278C189.778 285.334 191.444 287 193.5 287C195.556 287 197.222 285.334 197.222 283.278V257.222H223.278C225.334 257.222 227 255.556 227 253.5C227 251.444 225.334 249.778 223.278 249.778H197.222V223.722Z" fill="white"/>
</svg>
