<svg xmlns="http://www.w3.org/2000/svg" viewBox="0 0 540.07 107.23"><g id="Layer_2" data-name="Layer 2"><g id="Layer_1-2" data-name="Layer 1"><path d="M37.2,96.54a3.34,3.34,0,0,1,1.28-.9,3.25,3.25,0,0,1,.83-.15c.9,0,1.71.65,2.41,2a36.45,36.45,0,0,1-8.44,7.07,18.37,18.37,0,0,1-9.63,2.71,23.67,23.67,0,0,1-5.73-.67,9.88,9.88,0,0,1-4.67-2.64,13.41,13.41,0,0,1-3.08-5.35A28.19,28.19,0,0,1,9,89.76V48.2H0V46.54a5.07,5.07,0,0,1,.38-2A1.52,1.52,0,0,1,2,43.68a10,10,0,0,0,6.62-2.11,16.34,16.34,0,0,0,4.22-5.42q1.81-3.61,3.16-6.78c.91-2.11,1.91-3.16,3-3.16h2.71V41.87H39.31a12.64,12.64,0,0,1-.68,4.74,2.47,2.47,0,0,1-2.48,1.59H21.69V85.55a53.22,53.22,0,0,0,.45,7.75,13.43,13.43,0,0,0,1.35,4.52,4.36,4.36,0,0,0,2.11,2,7.74,7.74,0,0,0,2.71.45,10.24,10.24,0,0,0,4.75-1.13A27.63,27.63,0,0,0,37.2,96.54Z"/><path d="M59.1,105.43c-1.72,0-3.48,0-5.25.07s-3.41.13-4.91.23-2.82.2-3.92.3-1.81.15-2.11.15q0-.15-.15-1.05a9.26,9.26,0,0,1-.15-1.36A1.65,1.65,0,0,1,44,102a30.44,30.44,0,0,0,6.32-1.8,3.58,3.58,0,0,0,2.41-3.47v-41c0-3-.53-5.17-1.58-6.48s-3.34-2.11-6.85-2.41a2,2,0,0,1-2-2.11,8.58,8.58,0,0,1,.3-2c1.3,0,3.14-.07,5.5-.22s4.3-.33,5.81-.53q3.51-.6,6.24-1.28a19.11,19.11,0,0,1,4-.68c1.43,0,2.14.76,2.14,2.26a34.07,34.07,0,0,1-.45,5,53,53,0,0,0-.46,7.75V96.69a3.59,3.59,0,0,0,2.34,3.47,28.82,28.82,0,0,0,6.55,1.8,1.63,1.63,0,0,1,1.21,1.81c0,.3,0,.75-.08,1.36a2.23,2.23,0,0,1-.23,1.05c-.3,0-1-.05-2-.15s-2.33-.2-3.84-.3-3.15-.18-4.92-.23S60.83,105.43,59.1,105.43ZM50.29,14.91a8.8,8.8,0,0,1,2.49-6.25A8.21,8.21,0,0,1,59,6a7.8,7.8,0,0,1,6,2.64,8.94,8.94,0,0,1,2.41,6.25,8.56,8.56,0,0,1-2.41,6.33,8.18,8.18,0,0,1-6,2.41,8.63,8.63,0,0,1-6.25-2.41A8.42,8.42,0,0,1,50.29,14.91Z"/><path d="M140.51,55.27a27.45,27.45,0,0,0,2.72-2.86,44.22,44.22,0,0,1,5.51-5.12,46,46,0,0,1,7.86-5,21.06,21.06,0,0,1,9.6-2.26q9.08,0,12.85,5.35t3.78,14.83v36.6q0,2.26,2.71,3.39a29.31,29.31,0,0,0,6,1.73,1.65,1.65,0,0,1,1.36,1.81,13,13,0,0,1-.3,2.41c-2.61-.2-5.18-.38-7.69-.53s-5.25-.22-8.2-.22q-4,0-8,.22t-7.85.53a13,13,0,0,1-.3-2.41,1.65,1.65,0,0,1,1.35-1.81,14.54,14.54,0,0,0,2.79-.6,18.62,18.62,0,0,0,2.64-1,7.75,7.75,0,0,0,2-1.43,2.78,2.78,0,0,0,.83-2v-31q0-9.34-2.26-12.58T160.54,50a21.86,21.86,0,0,0-7.46,1.28,18.51,18.51,0,0,0-6.25,3.77,18.82,18.82,0,0,0-4.36,6.1,19.59,19.59,0,0,0-1.66,8.28V96.84c0,1.51.85,2.64,2.56,3.39a26.46,26.46,0,0,0,5.72,1.73,1.65,1.65,0,0,1,1.36,1.81,13,13,0,0,1-.3,2.41c-2.62-.2-5.15-.38-7.61-.53s-5-.22-7.76-.22-5.39.07-8,.22-5.3.33-7.91.53a13,13,0,0,1-.3-2.41,1.65,1.65,0,0,1,1.35-1.81,25.55,25.55,0,0,0,5.5-1.58q2.79-1.12,2.79-3.54v-31q0-9.34-2.18-12.58c-1.44-2.16-3.87-3.24-7.26-3.24a21.64,21.64,0,0,0-7.42,1.28A19.18,19.18,0,0,0,105,55.05a18.11,18.11,0,0,0-4.42,6.1,19.74,19.74,0,0,0-1.65,8.28V96.84q0,2.26,2.63,3.39a28.6,28.6,0,0,0,5.65,1.73,1.65,1.65,0,0,1,1.36,1.81,13,13,0,0,1-.3,2.41q-3.91-.3-7.7-.53t-8-.22c-3,0-5.74.07-8.35.22s-5.18.33-7.69.53a13,13,0,0,1-.3-2.41A1.65,1.65,0,0,1,77.55,102a29.41,29.41,0,0,0,6-1.73c1.8-.75,2.71-1.93,2.71-3.54v-41c0-3-.53-5.17-1.58-6.48s-3.34-2.11-6.86-2.41a2,2,0,0,1-1.95-2.11,8.05,8.05,0,0,1,.3-2c1.3,0,3.13-.07,5.49-.22s4.3-.33,5.82-.53q3.49-.6,6.24-1.28a19.11,19.11,0,0,1,4-.68c1.42,0,2.13.76,2.13,2.26a34.07,34.07,0,0,1-.45,5,53.22,53.22,0,0,0-.45,7.75c.3-.3,1.15-1.25,2.55-2.86A43.75,43.75,0,0,1,107,47.14a42.44,42.44,0,0,1,7.72-4.89,21.11,21.11,0,0,1,9.61-2.19q7.8,0,11.63,4C138.48,46.72,140,50.45,140.51,55.27Z"/><path d="M248.81,91.42a3.15,3.15,0,0,1,2.25-1c1,0,1.95.85,2.86,2.56a45.36,45.36,0,0,1-4.52,5.27,29,29,0,0,1-6.1,4.59,33.11,33.11,0,0,1-8.06,3.24,40.64,40.64,0,0,1-10.39,1.2,33.59,33.59,0,0,1-11.45-2,26.31,26.31,0,0,1-9.56-6,29.78,29.78,0,0,1-6.63-10.09A36.87,36.87,0,0,1,194.73,75a33.78,33.78,0,0,1,2.93-14.15,36.5,36.5,0,0,1,7.61-11.07,35.68,35.68,0,0,1,10.32-7.16,26.45,26.45,0,0,1,10.91-2.56q14,0,20.41,8.14t6.4,21.23a.8.8,0,0,1-.9.91l-43.53,2a34.28,34.28,0,0,0,1.65,10.85,26.06,26.06,0,0,0,4.66,8.58,21.21,21.21,0,0,0,7.28,5.65,22.21,22.21,0,0,0,9.68,2,20,20,0,0,0,9.23-2.26A24.22,24.22,0,0,0,248.81,91.42ZM224.47,45.48a13.54,13.54,0,0,0-11.69,5.88q-4.2,5.87-4.2,15.36l28.33-1.35c1.49,0,2.25-.66,2.25-2a22.44,22.44,0,0,0-.9-6,19.85,19.85,0,0,0-2.7-5.8A15.35,15.35,0,0,0,231,47.22,12,12,0,0,0,224.47,45.48Z"/><path d="M297.59,58.59a2.39,2.39,0,0,1-1.73-.53,2.46,2.46,0,0,1-.68-1.13q-1.05-6.18-4.89-8.81a16.5,16.5,0,0,0-9.57-2.64A12.75,12.75,0,0,0,273,48a8,8,0,0,0-3.39,6.85,8.26,8.26,0,0,0,3.09,6.55q3.07,2.64,11.22,5.2a71.38,71.38,0,0,1,8.05,3,25.14,25.14,0,0,1,6.33,4,16.43,16.43,0,0,1,4.14,5.73,19.77,19.77,0,0,1,1.51,8,20.28,20.28,0,0,1-1.43,7.53,17.16,17.16,0,0,1-4.37,6.33,22.22,22.22,0,0,1-7.38,4.37,30.53,30.53,0,0,1-10.62,1.65,58.49,58.49,0,0,1-10.77-1.12,35.44,35.44,0,0,1-10.77-3.85q-.3-3.92-.52-8.2t-.23-8.66h1.51a5.73,5.73,0,0,1,2.56.52,2.13,2.13,0,0,1,1.2,1.74A15,15,0,0,0,268,97.82q4.29,3.84,12,3.84,6.18,0,9.49-2.78a9.42,9.42,0,0,0,3.31-7.61,8.85,8.85,0,0,0-3.61-7.61,36.28,36.28,0,0,0-10.7-4.74q-8.88-2.72-13.93-7.08t-5-12.8a18.28,18.28,0,0,1,5.72-13.41,20,20,0,0,1,6.63-4.06,24.23,24.23,0,0,1,8.73-1.51,40,40,0,0,1,11.37,1.58A37.52,37.52,0,0,1,300.3,45q.15,1.22.3,2.94c.1,1.15.18,2.36.23,3.61l.15,3.77c0,1.26.08,2.39.08,3.39Z"/><path d="M342.21,96.54a3.27,3.27,0,0,1,1.28-.9,3.19,3.19,0,0,1,.82-.15c.91,0,1.71.65,2.41,2a36.61,36.61,0,0,1-8.43,7.07,18.41,18.41,0,0,1-9.64,2.71,23.53,23.53,0,0,1-5.72-.67,9.78,9.78,0,0,1-4.67-2.64,13.31,13.31,0,0,1-3.09-5.35A28.49,28.49,0,0,1,314,89.76V48.2h-9V46.54a5.07,5.07,0,0,1,.38-2,1.53,1.53,0,0,1,1.58-.9,10.08,10.08,0,0,0,6.63-2.11,16.47,16.47,0,0,0,4.22-5.42c1.2-2.41,2.26-4.67,3.16-6.78s1.91-3.16,3-3.16h2.71V41.87h17.62a12.67,12.67,0,0,1-.67,4.74,2.49,2.49,0,0,1-2.49,1.59H326.69V85.55a53.22,53.22,0,0,0,.45,7.75,13.64,13.64,0,0,0,1.36,4.52,4.28,4.28,0,0,0,2.11,2,7.7,7.7,0,0,0,2.71.45,10.17,10.17,0,0,0,4.74-1.13A27.72,27.72,0,0,0,342.21,96.54Z"/><path d="M409.19,101.36c1.11,0,1.71,1.06,1.81,3.16a17.06,17.06,0,0,1-9.94,2.71,15.49,15.49,0,0,1-5.77-1,12.32,12.32,0,0,1-4.12-2.64,11.88,11.88,0,0,1-2.59-3.76,16.47,16.47,0,0,1-1.23-4.37q-3.77,6.78-9,9.26a27.36,27.36,0,0,1-12,2.48,41.84,41.84,0,0,1-6.4-.52,19.36,19.36,0,0,1-6.4-2.19,13.76,13.76,0,0,1-5-4.66,14.43,14.43,0,0,1-2-8,16.29,16.29,0,0,1,2.63-9.41,21.65,21.65,0,0,1,6.78-6.33,41.47,41.47,0,0,1,9-4q4.89-1.5,9.41-2.56c1.71-.3,3.29-.62,4.75-1a34.7,34.7,0,0,0,3.84-1.13,4,4,0,0,0,2.63-1.65,10.41,10.41,0,0,0,.53-4.07q0-7.08-2.71-11.67T374,45.48a14,14,0,0,0-4.37.61,7.18,7.18,0,0,0-3,1.88,11.45,11.45,0,0,0-2.11,3.39c-.6,1.41-1.2,3.06-1.81,5a3.63,3.63,0,0,1-2,2.41,38.12,38.12,0,0,1-5.35,1.81,22.72,22.72,0,0,1-2.26.6,10.74,10.74,0,0,1-2.25.3c-1,0-1.51-1.05-1.51-3.16a10.81,10.81,0,0,1,2.56-6.63,25.6,25.6,0,0,1,6.55-5.87A39.52,39.52,0,0,1,367,41.64a27.83,27.83,0,0,1,8.89-1.58,45.29,45.29,0,0,1,9.51.91,17.32,17.32,0,0,1,7.28,3.31,15.11,15.11,0,0,1,4.65,6.48A29.11,29.11,0,0,1,399,61.3V87.2a53.73,53.73,0,0,0,.38,7.61,11.19,11.19,0,0,0,1.13,3.69,6.12,6.12,0,0,0,2.33,2.79,5.57,5.57,0,0,0,2.64.67,6.34,6.34,0,0,0,2.33-.3A3.49,3.49,0,0,1,409.19,101.36ZM386.3,72l-4.85.75c-2.62.51-5.18,1.11-7.65,1.81a24.18,24.18,0,0,0-6.59,2.94,14.92,14.92,0,0,0-4.62,4.74,13.41,13.41,0,0,0-1.74,7.08q0,5.73,2.95,8.74a9.87,9.87,0,0,0,7.35,3,13.6,13.6,0,0,0,5.68-1.28,14.33,14.33,0,0,0,4.85-3.61,19.46,19.46,0,0,0,3.33-5.5,18.19,18.19,0,0,0,1.29-6.93Z"/><path d="M440.07,45.79q-7.08,0-11.53,6.17T424.1,68.68q0,14.61,6.55,22.74a21.23,21.23,0,0,0,17.4,8.13,19.17,19.17,0,0,0,8.06-1.5,52.49,52.49,0,0,0,5.64-3l1.06-.68A2.26,2.26,0,0,1,464,94,2.41,2.41,0,0,1,465.67,95a9.9,9.9,0,0,1,1.21,1.65,26.29,26.29,0,0,1-3.77,3.62,31.18,31.18,0,0,1-5.42,3.39,33.87,33.87,0,0,1-7.46,2.56,44,44,0,0,1-9.71,1,33.23,33.23,0,0,1-11.67-2,26.83,26.83,0,0,1-9.64-6.1,28.86,28.86,0,0,1-6.56-10.16,38.79,38.79,0,0,1-2.4-14.24,33.33,33.33,0,0,1,2.93-14.08,36.47,36.47,0,0,1,7.53-10.92A35.48,35.48,0,0,1,431,42.62,26.83,26.83,0,0,1,442,40.06a38.82,38.82,0,0,1,10.09,1.21,28.56,28.56,0,0,1,7.69,3.16A15.59,15.59,0,0,1,464.69,49a9.94,9.94,0,0,1,1.73,5.5c0,.6-.5,1.11-1.5,1.51a19.7,19.7,0,0,1-3.39,1,33.21,33.21,0,0,1-3.62.52c-1.15.1-1.83.15-2,.15a3.45,3.45,0,0,1-3.09-1.88c-.75-1.25-1.58-2.61-2.48-4.06a16.62,16.62,0,0,0-3.69-4.07A10.16,10.16,0,0,0,440.07,45.79Z"/><path d="M491,96.69a3.61,3.61,0,0,0,2.41,3.39,27.9,27.9,0,0,0,5.88,1.88,1.65,1.65,0,0,1,1.35,1.81,13,13,0,0,1-.3,2.41q-3.92-.3-7.62-.53c-2.47-.15-5.12-.22-8-.22s-5.75.07-8.42.22-5.26.33-7.77.53a13,13,0,0,1-.3-2.41,1.62,1.62,0,0,1,1.21-1.81,33.7,33.7,0,0,0,6-1.73q2.87-1.12,2.86-3.54v-81q0-4.82-1.81-6.55t-7.23-2.18a2,2,0,0,1-1.95-2.11,9,9,0,0,1,.3-2.11c1.3,0,3.11-.07,5.42-.22s4.42-.33,6.34-.53A44.62,44.62,0,0,0,485.63.75a17.28,17.28,0,0,1,4-.75,2.23,2.23,0,0,1,1.83.6,2.75,2.75,0,0,1,.46,1.66,44.34,44.34,0,0,1-.46,6,60.82,60.82,0,0,0-.45,7.91V70l22.6-20a2.42,2.42,0,0,0,1.36-2.26,1.32,1.32,0,0,0-1.13-1.35c-.75-.2-1.58-.38-2.49-.53a9.57,9.57,0,0,1-2.48-.75,1.9,1.9,0,0,1-1.13-1.88,8.27,8.27,0,0,1,.3-1.81c.6,0,2.26.07,5,.22s5.57.23,8.59.23,5.72-.08,8.13-.23,4-.22,4.67-.22a2.37,2.37,0,0,0,.22.68,2.85,2.85,0,0,1,.23,1.13,2.82,2.82,0,0,1-.53,1.65,1.78,1.78,0,0,1-1.58.75A22,22,0,0,0,527,46.76,11.33,11.33,0,0,0,524,48.35l-21.09,19,24.4,28.32a14,14,0,0,0,5.87,4.59,25.85,25.85,0,0,0,5.43,1.28c1,0,1.5.6,1.5,1.81a9,9,0,0,1-.15,1.35c-.1.61-.2,1.11-.3,1.51q-10.25-.45-21.09-.45L491.12,72.59H491Z"/></g></g></svg>