<svg xmlns="http://www.w3.org/2000/svg" viewBox="0 0 94 134.34"><defs><style>.cls-1{fill:none;stroke:#000;stroke-miterlimit:10;stroke-width:4px;}</style></defs><g id="Layer_2" data-name="Layer 2"><g id="Layer_1-2" data-name="Layer 1"><path class="cls-1" d="M92,119.21V35.86A13.13,13.13,0,0,0,78.87,22.73H41.33A13.13,13.13,0,0,0,28.2,35.86v83.35a13.13,13.13,0,0,0,13.13,13.13H78.87A13.13,13.13,0,0,0,92,119.21Z"/><path class="cls-1" d="M65.78,122H28.23A13.12,13.12,0,0,1,15.1,108.85V25.49A13.13,13.13,0,0,1,28.23,12.36H65.78A13.13,13.13,0,0,1,78.91,25.49v83.36A13.12,13.12,0,0,1,65.78,122Z"/><rect class="cls-1" x="2" y="2" width="63.81" height="109.61" rx="13.13"/></g></g></svg>