<svg width="448" height="188" viewBox="0 0 448 188" fill="none" xmlns="http://www.w3.org/2000/svg">
<g filter="url(#filter0_d_143_1078)">
<path d="M70.8609 14.9C71.1276 14.3 71.5609 13.8333 72.1609 13.5C72.7609 13.1667 74.2276 13 76.5609 13C77.0943 13 77.8609 13 78.8609 13C79.9276 12.9333 81.0609 12.9 82.2609 12.9C83.4609 12.8333 84.6609 12.7667 85.8609 12.7C87.0609 12.6333 88.0943 12.5667 88.9609 12.5C89.0943 12.8333 89.1609 13.1667 89.1609 13.5C89.1609 13.8333 89.1609 14.1 89.1609 14.3C89.1609 15.3667 88.7943 16 88.0609 16.2C86.7276 16.4 85.6609 16.6 84.8609 16.8C84.1276 17 83.5609 17.2667 83.1609 17.6C82.7609 17.8667 82.4943 18.2 82.3609 18.6C82.2276 19 82.1609 19.4667 82.1609 20C82.1609 20.1333 82.1943 21.4 82.2609 23.8C82.3943 26.2 82.5609 29.1667 82.7609 32.7C82.9609 36.2333 83.1609 40.0667 83.3609 44.2C83.5609 48.3333 83.7609 52.2667 83.9609 56C84.1609 59.6667 84.3276 62.8667 84.4609 65.6C84.5943 68.3333 84.6943 70 84.7609 70.6C84.7609 71.2667 84.8276 71.8333 84.9609 72.3C85.1609 72.7 85.4609 73.0667 85.8609 73.4C86.3276 73.7333 86.9609 74.0333 87.7609 74.3C88.5609 74.5 89.5943 74.7 90.8609 74.9C91.5943 75.0333 91.9609 75.6667 91.9609 76.8C91.9609 77.2667 91.8943 77.8333 91.7609 78.5C89.4276 78.3667 87.2943 78.2333 85.3609 78.1C83.4943 78.0333 81.3609 78 78.9609 78C76.7609 78 74.3943 78.0333 71.8609 78.1C69.3943 78.2333 67.3276 78.3667 65.6609 78.5C65.5276 77.8333 65.4609 77.2667 65.4609 76.8C65.4609 76.0667 65.5609 75.5667 65.7609 75.3C66.0276 75.0333 66.2609 74.9 66.4609 74.9C69.1943 74.4333 70.9609 73.9 71.7609 73.3C72.5609 72.6333 72.9609 71.6333 72.9609 70.3C72.9609 70.1 72.8943 69.0333 72.7609 67.1C72.6943 65.1667 72.5943 62.7667 72.4609 59.9C72.3943 57.0333 72.2609 53.9333 72.0609 50.6C71.9276 47.2667 71.7609 44.1333 71.5609 41.2C71.4276 38.2667 71.2943 35.7333 71.1609 33.6C71.0943 31.4667 71.0276 30.1667 70.9609 29.7L50.4609 77.4C50.1276 78 49.8276 78.4333 49.5609 78.7C49.3609 79.0333 49.0609 79.2 48.6609 79.2C48.5276 79.2 48.3276 79.2 48.0609 79.2C47.7943 79.2 47.5943 79.1667 47.4609 79.1L24.2609 23.5C24.1943 24.3667 24.0943 26.1333 23.9609 28.8C23.8943 31.4 23.7609 34.4 23.5609 37.8C23.4276 41.2 23.2609 44.8 23.0609 48.6C22.9276 52.3333 22.7943 55.8 22.6609 59C22.5276 62.2 22.3943 64.9 22.2609 67.1C22.1943 69.2333 22.1609 70.4 22.1609 70.6C22.1609 71.2 22.2276 71.7333 22.3609 72.2C22.4943 72.6 22.7609 72.9667 23.1609 73.3C23.5609 73.6333 24.1609 73.9333 24.9609 74.2C25.7609 74.4 26.8609 74.6333 28.2609 74.9C28.9943 75.0333 29.3609 75.6667 29.3609 76.8C29.3609 77 29.3276 77.2667 29.2609 77.6C29.2609 77.8667 29.2276 78.1667 29.1609 78.5C27.3609 78.3667 25.6943 78.2333 24.1609 78.1C22.6276 78.0333 21.0943 78 19.5609 78C18.2276 78 16.5609 78.0333 14.5609 78.1C12.5609 78.2333 10.7609 78.3667 9.16094 78.5C9.0276 78.2333 8.96094 77.9333 8.96094 77.6C8.96094 77.2667 8.96094 77 8.96094 76.8C8.96094 76.0667 9.06094 75.6 9.26094 75.4C9.46094 75.1333 9.7276 74.9667 10.0609 74.9C12.1276 74.4333 13.6276 73.9 14.5609 73.3C15.4943 72.7 16.0276 71.8 16.1609 70.6C16.1609 70.0667 16.2276 68.4667 16.3609 65.8C16.4943 63.0667 16.6609 59.8667 16.8609 56.2C17.0609 52.4667 17.2609 48.5333 17.4609 44.4C17.6609 40.2 17.8276 36.3333 17.9609 32.8C18.1609 29.2 18.2943 26.2 18.3609 23.8C18.4943 21.4 18.5609 20.1333 18.5609 20C18.5609 18.8667 18.1943 18.0667 17.4609 17.6C16.7276 17.0667 15.1276 16.6 12.6609 16.2C11.9276 16.1333 11.5609 15.5 11.5609 14.3C11.5609 14.1 11.5609 13.8333 11.5609 13.5C11.5609 13.1667 11.6276 12.8333 11.7609 12.5C12.6276 12.5667 13.8276 12.6333 15.3609 12.7C16.8943 12.7667 18.4609 12.8333 20.0609 12.9C21.6609 12.9 23.1609 12.9333 24.5609 13C25.9609 13 26.9609 13 27.5609 13C28.7609 13 29.6943 13.0667 30.3609 13.2C31.0276 13.2667 31.5609 13.3667 31.9609 13.5C32.3609 13.6333 32.6276 13.8333 32.7609 14.1C32.9609 14.3667 33.1276 14.6333 33.2609 14.9L51.8609 59.8L70.8609 14.9ZM136.7 74.9C137.7 74.9 138.2 75.7333 138.2 77.4C137.333 78 136.233 78.4333 134.9 78.7C133.633 79.0333 132.333 79.2 131 79.2C128 79.2 125.7 78.4667 124.1 77C122.5 75.5333 121.567 73.8333 121.3 71.9C119.967 74.5667 118.167 76.4667 115.9 77.6C113.7 78.6667 111.1 79.2 108.1 79.2C106.7 79.2 105.133 79.0667 103.4 78.8C101.733 78.6 100.167 78.1333 98.7 77.4C97.3 76.6667 96.1 75.6333 95.1 74.3C94.1 72.9667 93.6 71.2 93.6 69C93.6 66.5333 94.2333 64.4333 95.5 62.7C96.7667 60.9667 98.3333 59.5333 100.2 58.4C102.133 57.2 104.233 56.2667 106.5 55.6C108.767 54.8667 110.9 54.2667 112.9 53.8C113.767 53.6 114.667 53.4 115.6 53.2C116.533 52.9333 117.267 52.7333 117.8 52.6C118.533 52.4 119 52.1333 119.2 51.8C119.4 51.4 119.5 50.4333 119.5 48.9C119.5 45.5 119 42.9 118 41.1C117 39.2333 115.3 38.3 112.9 38.3C110.967 38.3 109.567 38.9 108.7 40.1C107.9 41.3 107.133 43.2 106.4 45.8C106.2 46.5333 105.6 47.1 104.6 47.5C103.667 47.8333 102.467 48.2 101 48.6C100.2 48.8 99.3667 48.9667 98.5 49.1C97.7 49.2333 96.9667 49.3 96.3 49.3C95.9 49.3 95.6333 49.1667 95.5 48.9C95.3667 48.5667 95.3 47.9667 95.3 47.1C95.3 45.4333 95.9 43.8 97.1 42.2C98.3667 40.6 99.9333 39.2 101.8 38C103.667 36.7333 105.7 35.7333 107.9 35C110.167 34.2667 112.333 33.9 114.4 33.9C116.867 33.9 119.1 34.1333 121.1 34.6C123.1 35 124.8 35.7667 126.2 36.9C127.667 37.9667 128.8 39.4333 129.6 41.3C130.4 43.1 130.8 45.4333 130.8 48.3V65.9C130.8 68.2333 130.833 69.9333 130.9 71C131.033 72.0667 131.233 72.8667 131.5 73.4C132.1 74.6 133.033 75.2 134.3 75.2C134.833 75.2 135.267 75.1667 135.6 75.1C136 74.9667 136.367 74.9 136.7 74.9ZM119.5 56.2L117.3 56.6C115.767 56.8667 114.333 57.2667 113 57.8C111.667 58.2667 110.5 58.9333 109.5 59.8C108.567 60.6 107.8 61.6333 107.2 62.9C106.667 64.1 106.4 65.5667 106.4 67.3C106.4 69.9 106.8 71.7333 107.6 72.8C108.467 73.8 109.7 74.3 111.3 74.3C113.833 74.3 115.833 73.3667 117.3 71.5C118.767 69.6333 119.5 67.0333 119.5 63.7V56.2ZM154.93 71.8C154.93 72.7333 155.164 73.4333 155.63 73.9C156.164 74.3 157.397 74.7667 159.33 75.3C159.597 75.3667 159.83 75.5 160.03 75.7C160.297 75.8333 160.43 76.1333 160.43 76.6C160.43 77 160.397 77.3667 160.33 77.7C160.33 77.9667 160.297 78.2333 160.23 78.5C158.43 78.3667 156.697 78.2333 155.03 78.1C153.364 78.0333 151.43 78 149.23 78C146.63 78 144.397 78.0333 142.53 78.1C140.664 78.2333 138.864 78.3667 137.13 78.5C137.064 78.2333 136.997 77.9667 136.93 77.7C136.93 77.3667 136.93 77 136.93 76.6C136.93 76.1333 137.03 75.8333 137.23 75.7C137.497 75.5 137.764 75.3667 138.03 75.3C139.764 74.9667 141.13 74.5667 142.13 74.1C143.13 73.5667 143.63 72.8 143.63 71.8V19.4C143.63 17.4 143.264 15.9 142.53 14.9C141.797 13.8333 140.264 13.2 137.93 13C137.064 12.8 136.63 12.2667 136.63 11.4C136.63 11.2 136.63 10.9333 136.63 10.6C136.63 10.2667 136.697 10 136.83 9.8C137.23 9.8 137.797 9.8 138.53 9.8C139.33 9.73333 140.164 9.7 141.03 9.7C141.897 9.63333 142.764 9.56666 143.63 9.49999C144.497 9.43333 145.297 9.36666 146.03 9.3C147.697 9.09999 149.297 8.83333 150.83 8.49999C152.364 8.16666 153.397 8 153.93 8C154.997 8 155.53 8.49999 155.53 9.49999C155.53 10.2333 155.43 11.2 155.23 12.4C155.03 13.5333 154.93 15.1667 154.93 17.3V53.2L169.53 40.9C170.064 40.5 170.33 40.0667 170.33 39.6C170.33 38.6667 169.197 38.1 166.93 37.9C166.13 37.8333 165.73 37.3333 165.73 36.4C165.73 35.8667 165.797 35.3333 165.93 34.8C169.13 35 172.364 35.1 175.63 35.1C177.164 35.1 178.63 35.1 180.03 35.1C181.497 35.0333 183.064 34.9333 184.73 34.8C184.797 35.1333 184.864 35.4333 184.93 35.7C184.997 35.9667 185.03 36.2 185.03 36.4C185.03 37.3333 184.564 37.8667 183.63 38C181.83 38.2 180.464 38.5 179.53 38.9C178.597 39.2333 177.797 39.6667 177.13 40.2L165.43 50.4L180.63 71.3C181.63 72.7 182.63 73.6667 183.63 74.2C184.697 74.7333 185.864 75.1 187.13 75.3C187.864 75.4333 188.23 75.8667 188.23 76.6C188.23 76.8 188.197 77.1 188.13 77.5C188.13 77.9 188.064 78.2333 187.93 78.5C185.397 78.4333 182.83 78.3667 180.23 78.3C177.63 78.3 174.864 78.3 171.93 78.3L155.43 55.8H154.93V71.8ZM222.57 68.8C223.17 68.3333 223.703 68.1 224.17 68.1C224.503 68.1 224.87 68.2667 225.27 68.6C225.736 68.8667 226.203 69.4333 226.67 70.3C224.07 73.3667 221.07 75.6333 217.67 77.1C214.336 78.5 210.37 79.2 205.77 79.2C203.17 79.2 200.603 78.8 198.07 78C195.603 77.1333 193.37 75.8333 191.37 74.1C189.37 72.3 187.736 70.0667 186.47 67.4C185.27 64.7333 184.67 61.5333 184.67 57.8C184.67 54.1333 185.37 50.8333 186.77 47.9C188.236 44.9 190.07 42.3667 192.27 40.3C194.47 38.2333 196.87 36.6667 199.47 35.6C202.07 34.4667 204.57 33.9 206.97 33.9C213.436 33.9 218.303 35.7667 221.57 39.5C224.903 43.2333 226.57 48.3333 226.57 54.8C226.57 55.2667 226.336 55.5 225.87 55.5L197.17 56.7C197.17 61.9 198.336 65.9 200.67 68.7C203.003 71.4333 206.503 72.8 211.17 72.8C213.236 72.8 215.27 72.4667 217.27 71.8C219.27 71.1333 221.036 70.1333 222.57 68.8ZM205.47 38.3C202.87 38.3 200.77 39.4333 199.17 41.7C197.636 43.9 196.87 47.4 196.87 52.2L212.47 51.5C213.47 51.4333 213.97 51 213.97 50.2C213.97 48.9333 213.803 47.6 213.47 46.2C213.136 44.8 212.603 43.5333 211.87 42.4C211.203 41.2 210.336 40.2333 209.27 39.5C208.203 38.7 206.936 38.3 205.47 38.3ZM251.005 76.3C249.672 75.5667 248.639 74.5667 247.905 73.3C247.239 72.0333 246.905 70.6333 246.905 69.1C246.905 66.9667 247.405 65.2667 248.405 64C249.405 62.7333 250.972 61.4333 253.105 60.1C251.372 58.9667 249.839 57.5333 248.505 55.8C247.172 54 246.505 51.7 246.505 48.9C246.505 46.7667 246.972 44.8 247.905 43C248.905 41.1333 250.205 39.5333 251.805 38.2C253.405 36.8667 255.272 35.8333 257.405 35.1C259.539 34.3 261.805 33.9 264.205 33.9C267.472 33.9 270.239 34.4 272.505 35.4C274.839 36.3333 276.672 37.3 278.005 38.3L287.805 33.5C288.605 34.0333 289.205 34.7667 289.605 35.7C290.072 36.5667 290.305 37.4 290.305 38.2C290.305 38.8667 290.172 39.4333 289.905 39.9C289.639 40.3 289.139 40.5 288.405 40.5C288.139 40.5 287.739 40.5 287.205 40.5C286.672 40.4333 286.239 40.4 285.905 40.4C285.172 40.4 284.439 40.4667 283.705 40.6C282.972 40.6667 282.039 40.8667 280.905 41.2C282.505 43.2667 283.305 45.8 283.305 48.8C283.305 52.8667 281.672 56.2333 278.405 58.9C275.205 61.5667 270.472 62.9 264.205 62.9C262.805 62.9 261.472 62.8333 260.205 62.7C258.939 62.5 257.739 62.2 256.605 61.8C255.272 62.5333 254.339 63.2667 253.805 64C253.272 64.6667 253.005 65.2667 253.005 65.8C253.005 66.3333 253.139 66.8 253.405 67.2C253.672 67.6 254.205 67.9333 255.005 68.2C255.805 68.4667 256.939 68.7 258.405 68.9C259.939 69.0333 261.939 69.1 264.405 69.1C267.739 69.1 270.805 69.4 273.605 70C276.405 70.5333 278.805 71.4 280.805 72.6C282.872 73.8 284.472 75.3667 285.605 77.3C286.739 79.1667 287.305 81.4333 287.305 84.1C287.305 86.5 286.805 88.7667 285.805 90.9C284.872 93.1 283.439 95 281.505 96.6C279.572 98.2667 277.139 99.5667 274.205 100.5C271.339 101.5 267.972 102 264.105 102C261.105 102 258.339 101.733 255.805 101.2C253.272 100.733 251.072 99.9333 249.205 98.8C247.405 97.6667 245.972 96.2 244.905 94.4C243.905 92.6 243.405 90.3667 243.405 87.7C243.405 85.1 244.139 82.8333 245.605 80.9C247.139 79.0333 248.939 77.5 251.005 76.3ZM254.005 78.2C253.272 79.1333 252.772 80.1667 252.505 81.3C252.305 82.4333 252.205 83.6667 252.205 85C252.205 86.5333 252.439 88 252.905 89.4C253.439 90.8667 254.272 92.1333 255.405 93.2C256.539 94.3333 258.005 95.2333 259.805 95.9C261.605 96.6333 263.772 97 266.305 97C270.439 97 273.439 96.0333 275.305 94.1C277.239 92.1667 278.205 89.8333 278.205 87.1C278.205 85.1 277.172 83.4 275.105 82C273.039 80.6667 269.539 80 264.605 80C262.872 80 261.005 79.8333 259.005 79.5C257.005 79.1667 255.339 78.7333 254.005 78.2ZM265.205 58.5C267.139 58.5 268.739 57.8333 270.005 56.5C271.339 55.1667 272.005 53.0333 272.005 50.1C272.005 48.6333 271.905 47.2 271.705 45.8C271.572 44.4 271.205 43.1667 270.605 42.1C270.005 40.9667 269.139 40.0667 268.005 39.4C266.939 38.6667 265.505 38.3 263.705 38.3C261.905 38.3 260.405 39.0333 259.205 40.5C258.005 41.9667 257.405 43.9667 257.405 46.5C257.405 48.0333 257.472 49.5333 257.605 51C257.805 52.4 258.172 53.6667 258.705 54.8C259.305 55.8667 260.105 56.7667 261.105 57.5C262.105 58.1667 263.472 58.5 265.205 58.5ZM321.289 34C323.222 34 324.656 34.5 325.589 35.5C326.589 36.5 327.089 37.7667 327.089 39.3C327.089 39.7667 326.989 40.1667 326.789 40.5C326.656 40.8333 326.289 41.2 325.689 41.6C325.156 42 324.389 42.4667 323.389 43C322.389 43.4667 321.089 44.0667 319.489 44.8C318.422 43.7333 317.422 43.0333 316.489 42.7C315.622 42.3 314.756 42.1 313.889 42.1C313.089 42.1 312.289 42.2333 311.489 42.5C310.756 42.7667 310.089 43.3 309.489 44.1C308.889 44.8333 308.389 45.8333 307.989 47.1C307.656 48.3667 307.489 50 307.489 52V70.6C307.489 71.9333 308.022 72.9333 309.089 73.6C310.156 74.2 312.256 74.7667 315.389 75.3C316.122 75.4333 316.489 75.8667 316.489 76.6C316.489 77.5333 316.422 78.1667 316.289 78.5C315.422 78.4333 314.356 78.3667 313.089 78.3C311.822 78.3 310.489 78.2667 309.089 78.2C307.689 78.1333 306.289 78.0667 304.889 78C303.556 78 302.356 78 301.289 78C298.756 78 296.589 78.0333 294.789 78.1C292.989 78.2333 291.289 78.3667 289.689 78.5C289.556 78.1667 289.489 77.5333 289.489 76.6C289.489 75.8667 289.856 75.4333 290.589 75.3C292.722 74.9 294.189 74.4667 294.989 74C295.789 73.5333 296.189 72.8 296.189 71.8V44.9C296.189 43.3667 295.889 42.1333 295.289 41.2C294.756 40.2667 293.189 39.6333 290.589 39.3C289.656 39.1667 289.189 38.6667 289.189 37.8C289.189 37.6 289.189 37.3333 289.189 37C289.189 36.6667 289.256 36.4 289.389 36.2C289.789 36.2 290.356 36.2 291.089 36.2C291.822 36.1333 292.622 36.1 293.489 36.1C294.356 36.0333 295.222 35.9667 296.089 35.9C296.956 35.8333 297.722 35.7333 298.389 35.6C299.856 35.4 301.356 35.1667 302.889 34.9C304.489 34.5667 305.556 34.4 306.089 34.4C307.022 34.4 307.489 34.9 307.489 35.9V41.3C309.822 38.7667 312.056 36.9333 314.189 35.8C316.322 34.6 318.689 34 321.289 34ZM360.87 68.8C361.47 68.3333 362.004 68.1 362.47 68.1C362.804 68.1 363.17 68.2667 363.57 68.6C364.037 68.8667 364.504 69.4333 364.97 70.3C362.37 73.3667 359.37 75.6333 355.97 77.1C352.637 78.5 348.67 79.2 344.07 79.2C341.47 79.2 338.904 78.8 336.37 78C333.904 77.1333 331.67 75.8333 329.67 74.1C327.67 72.3 326.037 70.0667 324.77 67.4C323.57 64.7333 322.97 61.5333 322.97 57.8C322.97 54.1333 323.67 50.8333 325.07 47.9C326.537 44.9 328.37 42.3667 330.57 40.3C332.77 38.2333 335.17 36.6667 337.77 35.6C340.37 34.4667 342.87 33.9 345.27 33.9C351.737 33.9 356.604 35.7667 359.87 39.5C363.204 43.2333 364.87 48.3333 364.87 54.8C364.87 55.2667 364.637 55.5 364.17 55.5L335.47 56.7C335.47 61.9 336.637 65.9 338.97 68.7C341.304 71.4333 344.804 72.8 349.47 72.8C351.537 72.8 353.57 72.4667 355.57 71.8C357.57 71.1333 359.337 70.1333 360.87 68.8ZM343.77 38.3C341.17 38.3 339.07 39.4333 337.47 41.7C335.937 43.9 335.17 47.4 335.17 52.2L350.77 51.5C351.77 51.4333 352.27 51 352.27 50.2C352.27 48.9333 352.104 47.6 351.77 46.2C351.437 44.8 350.904 43.5333 350.17 42.4C349.504 41.2 348.637 40.2333 347.57 39.5C346.504 38.7 345.237 38.3 343.77 38.3ZM409.61 74.9C410.61 74.9 411.11 75.7333 411.11 77.4C410.243 78 409.143 78.4333 407.81 78.7C406.543 79.0333 405.243 79.2 403.91 79.2C400.91 79.2 398.61 78.4667 397.01 77C395.41 75.5333 394.477 73.8333 394.21 71.9C392.877 74.5667 391.077 76.4667 388.81 77.6C386.61 78.6667 384.01 79.2 381.01 79.2C379.61 79.2 378.043 79.0667 376.31 78.8C374.643 78.6 373.077 78.1333 371.61 77.4C370.21 76.6667 369.01 75.6333 368.01 74.3C367.01 72.9667 366.51 71.2 366.51 69C366.51 66.5333 367.143 64.4333 368.41 62.7C369.677 60.9667 371.243 59.5333 373.11 58.4C375.043 57.2 377.143 56.2667 379.41 55.6C381.677 54.8667 383.81 54.2667 385.81 53.8C386.677 53.6 387.577 53.4 388.51 53.2C389.443 52.9333 390.177 52.7333 390.71 52.6C391.443 52.4 391.91 52.1333 392.11 51.8C392.31 51.4 392.41 50.4333 392.41 48.9C392.41 45.5 391.91 42.9 390.91 41.1C389.91 39.2333 388.21 38.3 385.81 38.3C383.877 38.3 382.477 38.9 381.61 40.1C380.81 41.3 380.043 43.2 379.31 45.8C379.11 46.5333 378.51 47.1 377.51 47.5C376.577 47.8333 375.377 48.2 373.91 48.6C373.11 48.8 372.277 48.9667 371.41 49.1C370.61 49.2333 369.877 49.3 369.21 49.3C368.81 49.3 368.543 49.1667 368.41 48.9C368.277 48.5667 368.21 47.9667 368.21 47.1C368.21 45.4333 368.81 43.8 370.01 42.2C371.277 40.6 372.843 39.2 374.71 38C376.577 36.7333 378.61 35.7333 380.81 35C383.077 34.2667 385.243 33.9 387.31 33.9C389.777 33.9 392.01 34.1333 394.01 34.6C396.01 35 397.71 35.7667 399.11 36.9C400.577 37.9667 401.71 39.4333 402.51 41.3C403.31 43.1 403.71 45.4333 403.71 48.3V65.9C403.71 68.2333 403.743 69.9333 403.81 71C403.943 72.0667 404.143 72.8667 404.41 73.4C405.01 74.6 405.943 75.2 407.21 75.2C407.743 75.2 408.177 75.1667 408.51 75.1C408.91 74.9667 409.277 74.9 409.61 74.9ZM392.41 56.2L390.21 56.6C388.677 56.8667 387.243 57.2667 385.91 57.8C384.577 58.2667 383.41 58.9333 382.41 59.8C381.477 60.6 380.71 61.6333 380.11 62.9C379.577 64.1 379.31 65.5667 379.31 67.3C379.31 69.9 379.71 71.7333 380.51 72.8C381.377 73.8 382.61 74.3 384.21 74.3C386.743 74.3 388.743 73.3667 390.21 71.5C391.677 69.6333 392.41 67.0333 392.41 63.7V56.2ZM435.852 71.5C436.519 71.1 437.086 70.9 437.552 70.9C438.219 70.9 438.919 71.6 439.652 73C436.852 75.5333 434.386 77.2 432.252 78C430.186 78.8 427.986 79.2 425.652 79.2C424.319 79.2 423.019 79.0333 421.752 78.7C420.552 78.3667 419.452 77.7667 418.452 76.9C417.452 76.0333 416.652 74.8667 416.052 73.4C415.452 71.8667 415.152 69.9333 415.152 67.6V40.1H409.152V37.6C409.152 37.3333 409.219 37 409.352 36.6C409.486 36.2 409.886 36 410.552 36C412.352 36 414.019 35.5 415.552 34.5C417.086 33.4333 418.319 31.8667 419.252 29.8C419.986 28.2667 420.786 27.0333 421.652 26.1C422.586 25.1667 423.486 24.7 424.352 24.7H426.452V35.1H438.152C438.152 37.2333 437.986 38.6 437.652 39.2C437.386 39.8 436.852 40.1 436.052 40.1H426.452V64.8C426.452 66.8 426.519 68.4 426.652 69.6C426.786 70.7333 426.986 71.6 427.252 72.2C427.586 72.8 427.986 73.2 428.452 73.4C428.986 73.5333 429.586 73.6 430.252 73.6C430.986 73.6 431.852 73.4333 432.852 73.1C433.852 72.7 434.852 72.1667 435.852 71.5ZM61.4934 143.7C63.8267 140.7 66.26 138.333 68.7934 136.6C71.3934 134.8 74.0267 133.9 76.6934 133.9C85.0267 133.9 89.1934 138.433 89.1934 147.5V171.9C89.1934 172.833 89.5934 173.533 90.3934 174C91.1934 174.467 92.66 174.9 94.7934 175.3C95.5267 175.433 95.8934 175.867 95.8934 176.6C95.8934 176.933 95.8934 177.267 95.8934 177.6C95.8934 177.933 95.8267 178.233 95.6934 178.5C94.0267 178.367 92.3267 178.233 90.5934 178.1C88.86 178.033 86.6934 178 84.0934 178C81.8934 178 79.86 178.033 77.9934 178.1C76.1934 178.233 74.3934 178.367 72.5934 178.5C72.46 177.833 72.3934 177.2 72.3934 176.6C72.3934 176.133 72.4934 175.833 72.6934 175.7C72.96 175.5 73.2267 175.367 73.4934 175.3C75.2934 174.967 76.46 174.567 76.9934 174.1C77.5934 173.633 77.8934 172.9 77.8934 171.9V152.3C77.8934 148.367 77.4934 145.667 76.6934 144.2C75.96 142.667 74.56 141.9 72.4934 141.9C69.4934 141.9 66.96 142.933 64.8934 145C62.8267 147 61.7934 150 61.7934 154V171.9C61.7934 172.9 62.0934 173.633 62.6934 174.1C63.2934 174.567 64.46 174.967 66.1934 175.3C66.9267 175.433 67.2934 175.867 67.2934 176.6C67.2934 176.933 67.2934 177.267 67.2934 177.6C67.2934 177.933 67.2267 178.233 67.0934 178.5C65.4934 178.367 63.8934 178.233 62.2934 178.1C60.6934 178.033 58.8267 178 56.6934 178C54.4934 178 52.46 178.033 50.5934 178.1C48.7934 178.233 46.9934 178.367 45.1934 178.5C45.06 177.833 44.9934 177.2 44.9934 176.6C44.9934 176.133 45.0934 175.833 45.2934 175.7C45.56 175.5 45.8267 175.367 46.0934 175.3C47.8934 174.967 49.06 174.567 49.5934 174.1C50.1934 173.633 50.4934 172.9 50.4934 171.9V152.3C50.4934 148.367 50.0934 145.667 49.2934 144.2C48.56 142.667 47.16 141.9 45.0934 141.9C42.0934 141.9 39.56 142.933 37.4934 145C35.4267 147 34.3934 150 34.3934 154V171.9C34.3934 172.9 34.6934 173.633 35.2934 174.1C35.8934 174.567 37.06 174.967 38.7934 175.3C39.5267 175.433 39.8934 175.867 39.8934 176.6C39.8934 176.933 39.8934 177.267 39.8934 177.6C39.8934 177.933 39.8267 178.233 39.6934 178.5C37.96 178.367 36.16 178.233 34.2934 178.1C32.4267 178.033 30.4267 178 28.2934 178C25.6934 178 23.4934 178.033 21.6934 178.1C19.96 178.233 18.26 178.367 16.5934 178.5C16.46 177.833 16.3934 177.2 16.3934 176.6C16.3934 176.133 16.4934 175.833 16.6934 175.7C16.96 175.5 17.2267 175.367 17.4934 175.3C19.6267 174.9 21.0934 174.467 21.8934 174C22.6934 173.533 23.0934 172.8 23.0934 171.8V145.4C23.0934 143.4 22.7267 141.867 21.9934 140.8C21.26 139.733 19.7267 139.1 17.3934 138.9C16.5267 138.7 16.0934 138.167 16.0934 137.3C16.0934 137.1 16.0934 136.867 16.0934 136.6C16.0934 136.267 16.16 135.967 16.2934 135.7C16.6934 135.7 17.26 135.7 17.9934 135.7C18.7934 135.633 19.6267 135.6 20.4934 135.6C21.36 135.533 22.2267 135.467 23.0934 135.4C23.96 135.333 24.76 135.267 25.4934 135.2C27.16 135 28.76 134.733 30.2934 134.4C31.8267 134.067 32.86 133.9 33.3934 133.9C34.46 133.9 34.9934 134.4 34.9934 135.4C34.9934 136.133 34.8934 137.1 34.6934 138.3C34.4934 139.5 34.3934 141.167 34.3934 143.3C36.5267 140.5 38.86 138.233 41.3934 136.5C43.9934 134.767 46.6267 133.9 49.2934 133.9C56.2934 133.9 60.36 137.167 61.4934 143.7ZM134.357 168.8C134.957 168.333 135.49 168.1 135.957 168.1C136.29 168.1 136.657 168.267 137.057 168.6C137.523 168.867 137.99 169.433 138.457 170.3C135.857 173.367 132.857 175.633 129.457 177.1C126.123 178.5 122.157 179.2 117.557 179.2C114.957 179.2 112.39 178.8 109.857 178C107.39 177.133 105.157 175.833 103.157 174.1C101.157 172.3 99.5233 170.067 98.2566 167.4C97.0566 164.733 96.4566 161.533 96.4566 157.8C96.4566 154.133 97.1566 150.833 98.5566 147.9C100.023 144.9 101.857 142.367 104.057 140.3C106.257 138.233 108.657 136.667 111.257 135.6C113.857 134.467 116.357 133.9 118.757 133.9C125.223 133.9 130.09 135.767 133.357 139.5C136.69 143.233 138.357 148.333 138.357 154.8C138.357 155.267 138.123 155.5 137.657 155.5L108.957 156.7C108.957 161.9 110.123 165.9 112.457 168.7C114.79 171.433 118.29 172.8 122.957 172.8C125.023 172.8 127.057 172.467 129.057 171.8C131.057 171.133 132.823 170.133 134.357 168.8ZM117.257 138.3C114.657 138.3 112.557 139.433 110.957 141.7C109.423 143.9 108.657 147.4 108.657 152.2L124.257 151.5C125.257 151.433 125.757 151 125.757 150.2C125.757 148.933 125.59 147.6 125.257 146.2C124.923 144.8 124.39 143.533 123.657 142.4C122.99 141.2 122.123 140.233 121.057 139.5C119.99 138.7 118.723 138.3 117.257 138.3ZM184.696 143.7C187.03 140.7 189.463 138.333 191.996 136.6C194.596 134.8 197.23 133.9 199.896 133.9C208.23 133.9 212.396 138.433 212.396 147.5V171.9C212.396 172.833 212.796 173.533 213.596 174C214.396 174.467 215.863 174.9 217.996 175.3C218.73 175.433 219.096 175.867 219.096 176.6C219.096 176.933 219.096 177.267 219.096 177.6C219.096 177.933 219.03 178.233 218.896 178.5C217.23 178.367 215.53 178.233 213.796 178.1C212.063 178.033 209.896 178 207.296 178C205.096 178 203.063 178.033 201.196 178.1C199.396 178.233 197.596 178.367 195.796 178.5C195.663 177.833 195.596 177.2 195.596 176.6C195.596 176.133 195.696 175.833 195.896 175.7C196.163 175.5 196.43 175.367 196.696 175.3C198.496 174.967 199.663 174.567 200.196 174.1C200.796 173.633 201.096 172.9 201.096 171.9V152.3C201.096 148.367 200.696 145.667 199.896 144.2C199.163 142.667 197.763 141.9 195.696 141.9C192.696 141.9 190.163 142.933 188.096 145C186.03 147 184.996 150 184.996 154V171.9C184.996 172.9 185.296 173.633 185.896 174.1C186.496 174.567 187.663 174.967 189.396 175.3C190.13 175.433 190.496 175.867 190.496 176.6C190.496 176.933 190.496 177.267 190.496 177.6C190.496 177.933 190.43 178.233 190.296 178.5C188.696 178.367 187.096 178.233 185.496 178.1C183.896 178.033 182.03 178 179.896 178C177.696 178 175.663 178.033 173.796 178.1C171.996 178.233 170.196 178.367 168.396 178.5C168.263 177.833 168.196 177.2 168.196 176.6C168.196 176.133 168.296 175.833 168.496 175.7C168.763 175.5 169.03 175.367 169.296 175.3C171.096 174.967 172.263 174.567 172.796 174.1C173.396 173.633 173.696 172.9 173.696 171.9V152.3C173.696 148.367 173.296 145.667 172.496 144.2C171.763 142.667 170.363 141.9 168.296 141.9C165.296 141.9 162.763 142.933 160.696 145C158.63 147 157.596 150 157.596 154V171.9C157.596 172.9 157.896 173.633 158.496 174.1C159.096 174.567 160.263 174.967 161.996 175.3C162.73 175.433 163.096 175.867 163.096 176.6C163.096 176.933 163.096 177.267 163.096 177.6C163.096 177.933 163.03 178.233 162.896 178.5C161.163 178.367 159.363 178.233 157.496 178.1C155.63 178.033 153.63 178 151.496 178C148.896 178 146.696 178.033 144.896 178.1C143.163 178.233 141.463 178.367 139.796 178.5C139.663 177.833 139.596 177.2 139.596 176.6C139.596 176.133 139.696 175.833 139.896 175.7C140.163 175.5 140.43 175.367 140.696 175.3C142.83 174.9 144.296 174.467 145.096 174C145.896 173.533 146.296 172.8 146.296 171.8V145.4C146.296 143.4 145.93 141.867 145.196 140.8C144.463 139.733 142.93 139.1 140.596 138.9C139.73 138.7 139.296 138.167 139.296 137.3C139.296 137.1 139.296 136.867 139.296 136.6C139.296 136.267 139.363 135.967 139.496 135.7C139.896 135.7 140.463 135.7 141.196 135.7C141.996 135.633 142.83 135.6 143.696 135.6C144.563 135.533 145.43 135.467 146.296 135.4C147.163 135.333 147.963 135.267 148.696 135.2C150.363 135 151.963 134.733 153.496 134.4C155.03 134.067 156.063 133.9 156.596 133.9C157.663 133.9 158.196 134.4 158.196 135.4C158.196 136.133 158.096 137.1 157.896 138.3C157.696 139.5 157.596 141.167 157.596 143.3C159.73 140.5 162.063 138.233 164.596 136.5C167.196 134.767 169.83 133.9 172.496 133.9C179.496 133.9 183.563 137.167 184.696 143.7ZM219.66 156.6C219.66 153.333 220.226 150.333 221.36 147.6C222.56 144.8 224.193 142.4 226.26 140.4C228.326 138.333 230.793 136.733 233.66 135.6C236.526 134.467 239.66 133.9 243.06 133.9C246.593 133.9 249.793 134.467 252.66 135.6C255.526 136.733 257.993 138.333 260.06 140.4C262.126 142.4 263.693 144.8 264.76 147.6C265.893 150.333 266.46 153.333 266.46 156.6C266.46 159.867 265.86 162.9 264.66 165.7C263.526 168.433 261.893 170.8 259.76 172.8C257.693 174.8 255.226 176.367 252.36 177.5C249.493 178.633 246.36 179.2 242.96 179.2C239.426 179.2 236.226 178.633 233.36 177.5C230.493 176.367 228.026 174.8 225.96 172.8C223.96 170.8 222.393 168.433 221.26 165.7C220.193 162.9 219.66 159.867 219.66 156.6ZM232.26 154.6C232.26 160.733 233.26 165.633 235.26 169.3C237.326 172.967 240.26 174.8 244.06 174.8C247.593 174.8 250.093 173.4 251.56 170.6C253.093 167.733 253.86 163.733 253.86 158.6C253.86 152.533 252.826 147.633 250.76 143.9C248.693 140.167 245.793 138.3 242.06 138.3C238.526 138.3 235.993 139.767 234.46 142.7C232.993 145.567 232.26 149.533 232.26 154.6ZM299.873 134C301.806 134 303.24 134.5 304.173 135.5C305.173 136.5 305.673 137.767 305.673 139.3C305.673 139.767 305.573 140.167 305.373 140.5C305.24 140.833 304.873 141.2 304.273 141.6C303.74 142 302.973 142.467 301.973 143C300.973 143.467 299.673 144.067 298.073 144.8C297.006 143.733 296.006 143.033 295.073 142.7C294.206 142.3 293.34 142.1 292.473 142.1C291.673 142.1 290.873 142.233 290.073 142.5C289.34 142.767 288.673 143.3 288.073 144.1C287.473 144.833 286.973 145.833 286.573 147.1C286.24 148.367 286.073 150 286.073 152V170.6C286.073 171.933 286.606 172.933 287.673 173.6C288.74 174.2 290.84 174.767 293.973 175.3C294.706 175.433 295.073 175.867 295.073 176.6C295.073 177.533 295.006 178.167 294.873 178.5C294.006 178.433 292.94 178.367 291.673 178.3C290.406 178.3 289.073 178.267 287.673 178.2C286.273 178.133 284.873 178.067 283.473 178C282.14 178 280.94 178 279.873 178C277.34 178 275.173 178.033 273.373 178.1C271.573 178.233 269.873 178.367 268.273 178.5C268.14 178.167 268.073 177.533 268.073 176.6C268.073 175.867 268.44 175.433 269.173 175.3C271.306 174.9 272.773 174.467 273.573 174C274.373 173.533 274.773 172.8 274.773 171.8V144.9C274.773 143.367 274.473 142.133 273.873 141.2C273.34 140.267 271.773 139.633 269.173 139.3C268.24 139.167 267.773 138.667 267.773 137.8C267.773 137.6 267.773 137.333 267.773 137C267.773 136.667 267.84 136.4 267.973 136.2C268.373 136.2 268.94 136.2 269.673 136.2C270.406 136.133 271.206 136.1 272.073 136.1C272.94 136.033 273.806 135.967 274.673 135.9C275.54 135.833 276.306 135.733 276.973 135.6C278.44 135.4 279.94 135.167 281.473 134.9C283.073 134.567 284.14 134.4 284.673 134.4C285.606 134.4 286.073 134.9 286.073 135.9V141.3C288.406 138.767 290.64 136.933 292.773 135.8C294.906 134.6 297.273 134 299.873 134ZM316.193 178C313.593 178 311.36 178.033 309.493 178.1C307.627 178.233 305.827 178.367 304.093 178.5C303.96 177.833 303.893 177.2 303.893 176.6C303.893 176.133 303.993 175.833 304.193 175.7C304.46 175.5 304.727 175.367 304.993 175.3C307.127 174.9 308.593 174.467 309.393 174C310.193 173.533 310.593 172.8 310.593 171.8V145.4C310.593 143.4 310.26 141.867 309.593 140.8C308.927 139.733 307.36 139.1 304.893 138.9C304.027 138.767 303.593 138.233 303.593 137.3C303.593 137.1 303.593 136.867 303.593 136.6C303.593 136.267 303.66 135.967 303.793 135.7C304.193 135.7 304.76 135.7 305.493 135.7C306.293 135.633 307.127 135.6 307.993 135.6C308.86 135.533 309.727 135.467 310.593 135.4C311.46 135.333 312.26 135.267 312.993 135.2C314.66 135 316.26 134.733 317.793 134.4C319.327 134.067 320.36 133.9 320.893 133.9C321.96 133.9 322.493 134.4 322.493 135.4C322.493 136.133 322.393 137.1 322.193 138.3C321.993 139.5 321.893 141.167 321.893 143.3V171.8C321.893 172.8 322.327 173.533 323.193 174C324.06 174.467 325.493 174.9 327.493 175.3C328.227 175.433 328.593 175.867 328.593 176.6C328.593 176.933 328.593 177.267 328.593 177.6C328.593 177.933 328.527 178.233 328.393 178.5C326.727 178.367 324.927 178.233 322.993 178.1C321.06 178.033 318.793 178 316.193 178ZM308.893 119.3C308.893 117.167 309.56 115.433 310.893 114.1C312.293 112.7 314.027 112 316.093 112C318.227 112 319.96 112.7 321.293 114.1C322.627 115.433 323.293 117.167 323.293 119.3C323.293 121.433 322.627 123.2 321.293 124.6C319.96 125.933 318.227 126.6 316.093 126.6C314.027 126.6 312.293 125.933 310.893 124.6C309.56 123.2 308.893 121.433 308.893 119.3ZM367.169 168.8C367.769 168.333 368.302 168.1 368.769 168.1C369.102 168.1 369.469 168.267 369.869 168.6C370.336 168.867 370.802 169.433 371.269 170.3C368.669 173.367 365.669 175.633 362.269 177.1C358.936 178.5 354.969 179.2 350.369 179.2C347.769 179.2 345.202 178.8 342.669 178C340.202 177.133 337.969 175.833 335.969 174.1C333.969 172.3 332.336 170.067 331.069 167.4C329.869 164.733 329.269 161.533 329.269 157.8C329.269 154.133 329.969 150.833 331.369 147.9C332.836 144.9 334.669 142.367 336.869 140.3C339.069 138.233 341.469 136.667 344.069 135.6C346.669 134.467 349.169 133.9 351.569 133.9C358.036 133.9 362.902 135.767 366.169 139.5C369.502 143.233 371.169 148.333 371.169 154.8C371.169 155.267 370.936 155.5 370.469 155.5L341.769 156.7C341.769 161.9 342.936 165.9 345.269 168.7C347.602 171.433 351.102 172.8 355.769 172.8C357.836 172.8 359.869 172.467 361.869 171.8C363.869 171.133 365.636 170.133 367.169 168.8ZM350.069 138.3C347.469 138.3 345.369 139.433 343.769 141.7C342.236 143.9 341.469 147.4 341.469 152.2L357.069 151.5C358.069 151.433 358.569 151 358.569 150.2C358.569 148.933 358.402 147.6 358.069 146.2C357.736 144.8 357.202 143.533 356.469 142.4C355.802 141.2 354.936 140.233 353.869 139.5C352.802 138.7 351.536 138.3 350.069 138.3ZM400.809 147.3C399.876 147.233 399.342 146.867 399.209 146.2C398.742 143.467 397.676 141.467 396.009 140.2C394.342 138.933 392.242 138.3 389.709 138.3C387.442 138.3 385.709 138.867 384.509 140C383.309 141.133 382.709 142.467 382.709 144C382.709 144.733 382.809 145.4 383.009 146C383.209 146.6 383.609 147.167 384.209 147.7C384.876 148.233 385.776 148.767 386.909 149.3C388.042 149.767 389.576 150.3 391.509 150.9C393.776 151.567 395.776 152.3 397.509 153.1C399.242 153.833 400.709 154.733 401.909 155.8C403.109 156.867 404.009 158.167 404.609 159.7C405.276 161.167 405.609 162.933 405.609 165C405.609 166.933 405.276 168.767 404.609 170.5C404.009 172.233 403.009 173.767 401.609 175.1C400.209 176.367 398.442 177.367 396.309 178.1C394.176 178.833 391.609 179.2 388.609 179.2C386.476 179.2 384.009 178.967 381.209 178.5C378.476 178.033 375.976 177.2 373.709 176C373.576 174.267 373.442 172.433 373.309 170.5C373.242 168.5 373.209 166.533 373.209 164.6H374.509C375.242 164.6 375.876 164.733 376.409 165C376.942 165.2 377.242 165.567 377.309 166.1C377.576 168.9 378.676 171.067 380.609 172.6C382.542 174.067 385.209 174.8 388.609 174.8C390.942 174.8 392.842 174.267 394.309 173.2C395.776 172.133 396.509 170.733 396.509 169C396.509 167.4 395.842 166.033 394.509 164.9C393.242 163.767 390.809 162.667 387.209 161.6C382.342 160.2 378.909 158.367 376.909 156.1C374.976 153.767 374.009 151 374.009 147.8C374.009 143.6 375.409 140.233 378.209 137.7C381.076 135.167 384.776 133.9 389.309 133.9C391.909 133.9 394.409 134.233 396.809 134.9C399.276 135.5 401.242 136.167 402.709 136.9C402.776 137.433 402.842 138.167 402.909 139.1C402.976 139.967 403.042 140.933 403.109 142C403.176 143 403.209 144 403.209 145C403.276 145.933 403.309 146.733 403.309 147.4L400.809 147.3ZM408.064 171.7C408.064 169.567 408.764 167.767 410.164 166.3C411.631 164.833 413.398 164.1 415.464 164.1C417.464 164.1 419.164 164.833 420.564 166.3C422.031 167.767 422.764 169.567 422.764 171.7C422.764 173.767 422.031 175.533 420.564 177C419.164 178.467 417.464 179.2 415.464 179.2C413.398 179.2 411.631 178.467 410.164 177C408.764 175.533 408.064 173.767 408.064 171.7Z" fill="white"/>
</g>
<defs>
<filter id="filter0_d_143_1078" x="0.960938" y="0" width="446.691" height="187.2" filterUnits="userSpaceOnUse" color-interpolation-filters="sRGB">
<feFlood flood-opacity="0" result="BackgroundImageFix"/>
<feColorMatrix in="SourceAlpha" type="matrix" values="0 0 0 0 0 0 0 0 0 0 0 0 0 0 0 0 0 0 127 0" result="hardAlpha"/>
<feOffset/>
<feGaussianBlur stdDeviation="4"/>
<feComposite in2="hardAlpha" operator="out"/>
<feColorMatrix type="matrix" values="0 0 0 0 1 0 0 0 0 1 0 0 0 0 1 0 0 0 1 0"/>
<feBlend mode="normal" in2="BackgroundImageFix" result="effect1_dropShadow_143_1078"/>
<feBlend mode="normal" in="SourceGraphic" in2="effect1_dropShadow_143_1078" result="shape"/>
</filter>
</defs>
</svg>
