<svg width="393" height="717" viewBox="0 0 393 717" fill="none" xmlns="http://www.w3.org/2000/svg">
<rect x="75" y="24.5601" width="150" height="12" rx="4" fill="#E9E9EA"/>
<rect x="75" y="41.5601" width="100" height="12" rx="4" fill="#E9E9EA"/>
<circle cx="39" cy="39.5601" r="25" fill="#E9E9EA"/>
<rect x="75" y="82.5601" width="150" height="12" rx="4" fill="#E9E9EA"/>
<rect x="75" y="99.5601" width="100" height="12" rx="4" fill="#E9E9EA"/>
<circle cx="39" cy="97.5601" r="25" fill="#E9E9EA"/>
<rect x="75" y="140.56" width="150" height="12" rx="4" fill="#E9E9EA"/>
<rect x="75" y="157.56" width="100" height="12" rx="4" fill="#E9E9EA"/>
<circle cx="39" cy="155.56" r="25" fill="#E9E9EA"/>
<rect x="75" y="198.56" width="150" height="12" rx="4" fill="#E9E9EA"/>
<rect x="75" y="215.56" width="100" height="12" rx="4" fill="#E9E9EA"/>
<circle cx="39" cy="213.56" r="25" fill="#E9E9EA"/>
<rect x="75" y="256.56" width="150" height="12" rx="4" fill="#E9E9EA"/>
<rect x="75" y="273.56" width="100" height="12" rx="4" fill="#E9E9EA"/>
<circle cx="39" cy="271.56" r="25" fill="#E9E9EA"/>
<rect x="75" y="314.56" width="150" height="12" rx="4" fill="#E9E9EA"/>
<rect x="75" y="331.56" width="100" height="12" rx="4" fill="#E9E9EA"/>
<circle cx="39" cy="329.56" r="25" fill="#E9E9EA"/>
<rect x="75" y="372.56" width="150" height="12" rx="4" fill="#E9E9EA"/>
<rect x="75" y="389.56" width="100" height="12" rx="4" fill="#E9E9EA"/>
<circle cx="39" cy="387.56" r="25" fill="#E9E9EA"/>
<rect x="75" y="430.56" width="150" height="12" rx="4" fill="#E9E9EA"/>
<rect x="75" y="447.56" width="100" height="12" rx="4" fill="#E9E9EA"/>
<circle cx="39" cy="445.56" r="25" fill="#E9E9EA"/>
<rect x="75" y="488.56" width="150" height="12" rx="4" fill="#E9E9EA"/>
<rect x="75" y="505.56" width="100" height="12" rx="4" fill="#E9E9EA"/>
<circle cx="39" cy="503.56" r="25" fill="#E9E9EA"/>
<rect x="75" y="546.56" width="150" height="12" rx="4" fill="#E9E9EA"/>
<rect x="75" y="563.56" width="100" height="12" rx="4" fill="#E9E9EA"/>
<circle cx="39" cy="561.56" r="25" fill="#E9E9EA"/>
<rect x="75" y="604.56" width="150" height="12" rx="4" fill="#E9E9EA"/>
<rect x="75" y="621.56" width="100" height="12" rx="4" fill="#E9E9EA"/>
<circle cx="39" cy="619.56" r="25" fill="#E9E9EA"/>
<rect x="75" y="662.56" width="150" height="12" rx="4" fill="#E9E9EA"/>
<rect x="75" y="679.56" width="100" height="12" rx="4" fill="#E9E9EA"/>
<circle cx="39" cy="677.56" r="25" fill="#E9E9EA"/>
</svg>
